<?xml version="1.0" encoding="UTF-8" standalone="no"?>
<!DOCTYPE svg PUBLIC "-//W3C//DTD SVG 1.1//EN" "http://www.w3.org/Graphics/SVG/1.1/DTD/svg11.dtd">
<svg width="100%" height="100%" viewBox="0 0 1024 1024" version="1.1" xmlns="http://www.w3.org/2000/svg" xmlns:xlink="http://www.w3.org/1999/xlink" xml:space="preserve" xmlns:serif="http://www.serif.com/" style="fill-rule:evenodd;clip-rule:evenodd;stroke-linecap:round;stroke-linejoin:round;stroke-miterlimit:1.5;">
    <g id="Bucky" transform="matrix(1.18628,0,0,1.18628,-96.6495,-95.7517)">
        <path d="M390.461,837.499C343.434,825.131 313.003,805.788 309.746,784.348C304.061,746.914 246.232,336.846 246.232,336.846L769.535,339.051C769.535,339.051 742.734,535.976 724.488,668.738C748.302,683.723 768.823,720.356 773.462,736.002C773.494,736.108 773.523,736.214 773.55,736.319C792.702,737.236 802.333,752.168 802.333,772.559C802.333,793.61 781.248,813.536 760.839,813.536C740.43,813.536 723.86,796.446 723.86,775.395C723.86,767.37 727.841,759.778 733.898,753.455L733.505,753.472L715.388,734.726C711.894,759.932 709.37,777.916 708.386,784.456C704.845,808.012 670.893,828.985 617.482,840.976L619.601,841.018C619.601,841.018 623.984,897.428 624.411,912.406C624.838,927.384 599.148,932.596 582.049,933.899C564.95,935.203 543.711,930.026 540.198,918.761C536.685,907.497 564.963,892.058 564.963,892.058L555.859,850.034L554.478,850.011C540.948,851.018 526.757,851.55 512,851.55C491.466,851.55 471.83,850.517 453.424,848.602C453.453,852.1 453.798,894.315 453.685,911.754C453.566,929.953 425.492,930.315 408.344,931.307C391.195,932.299 367.441,929.353 366.22,913.578C364.998,897.803 394.112,885.606 394.112,885.606L390.461,837.499ZM291.284,663.181L297.359,725.436C297.359,725.436 274.682,746.461 276.299,753.621C277.916,760.781 276.015,778.582 267.81,789.664C259.604,800.746 239.549,801.782 232.56,791.964C225.57,782.147 218.174,768.707 230.259,734.938C242.344,701.17 269.759,677.485 291.284,663.181Z" style="fill:rgb(34,169,242);"/>
        <path d="M391.074,845.575L390.388,836.531L619.601,841.018C619.601,841.018 622.423,877.337 623.759,899.428C613.634,894.663 602.58,889.182 593.08,883.823C581.516,877.3 573.267,877.14 562.089,878.791L555.859,850.034L453.422,848.371C453.422,848.371 453.549,863.473 453.634,879.731C417.811,872.557 394.647,860.21 394.647,860.21L391.074,845.575Z" style="fill:rgb(20,139,211);"/>
        <path d="M265.378,358.742L322.598,799.134" style="fill:none;stroke:rgb(103,213,255);stroke-width:13.49px;"/>
        <path d="M257.239,426.691C242.447,426.234 227.279,411.331 227.279,391.121C227.279,370.912 237.395,362.803 248.667,361.035" style="fill:rgb(34,170,242);"/>
        <g transform="matrix(-1,0,0,1,1024.95,12.6863)">
            <path d="M263.522,427.836C248.73,427.379 227.279,411.331 227.279,391.121C227.279,370.912 243.062,360.126 254.334,358.358" style="fill:rgb(34,170,242);"/>
        </g>
        <ellipse cx="508.021" cy="337.496" rx="261.493" ry="81.571" style="fill:rgb(19,139,213);"/>
        <path d="M306.635,389.508C335.965,365.398 416.881,348.055 512,348.055C604.386,348.055 683.372,364.416 714.71,387.446C666.855,406.681 592.039,419.068 508.021,419.068C427.045,419.068 354.616,407.561 306.635,389.508Z" style="fill:rgb(19,114,192);"/>
        <g transform="matrix(0.94585,0,0,0.866202,28.0173,48.8289)">
            <path d="M705.864,388.508C712.254,385.803 718.17,382.953 723.589,379.981C736.083,373.129 745.823,365.695 752.383,357.816C757.886,351.206 761.056,344.441 761.056,337.496C761.056,332.786 758.976,328.322 755.51,323.943C751.088,318.357 744.532,313.107 736.228,308.113C693.463,282.391 607.247,265.161 508.021,265.161C408.807,265.161 322.941,282.384 280.386,308.102C272.127,313.093 265.609,318.339 261.214,323.922C257.762,328.306 255.696,332.778 255.696,337.494C255.696,352.766 267.259,365.652 288.548,377.223C325.557,397.339 333.939,401.211 287.91,379.828C272.28,372.567 259.792,364.56 251.267,355.845C244.244,348.665 240.008,341.236 240.008,333.256C240.008,325.277 244.244,317.848 251.267,310.668C259.792,301.953 272.28,293.946 287.91,286.685C337.436,263.677 417.388,248.898 507.484,248.898C597.581,248.898 677.533,263.677 727.059,286.685C742.689,293.946 755.177,301.953 763.702,310.668C770.725,317.848 774.961,325.277 774.961,333.256C774.961,341.236 770.725,348.665 763.702,355.845C755.177,364.56 742.689,372.567 727.059,379.828C720.51,382.87 713.429,385.769 705.864,388.508Z" style="fill:rgb(103,213,255);"/>
        </g>
        <path d="M383.975,844.532C370.338,840.748 358.143,836.385 347.652,831.569C319.991,818.874 303.881,802.336 301.343,785.625C300.378,779.27 297.91,762.179 294.478,738.179C291.518,741.312 288.267,745.002 285.849,748.419C284.793,749.91 283.623,752.241 283.295,752.91C284.86,761.677 282.63,781.412 273.435,793.829C267.097,802.39 255.363,806.533 244.969,805.557C237.448,804.85 230.764,801.512 226.857,796.024C219.077,785.097 210.217,770.166 223.668,732.58C235.571,699.319 261.563,675.3 283.362,660.105C273.147,588.16 260.669,499.901 251.358,433.979C234.903,430.374 219.279,413.601 219.279,391.121C219.279,383.313 220.619,377.002 222.813,371.925C222.806,371.786 222.802,371.645 222.802,371.503C222.746,202.667 350.682,86.921 506.005,86.921C660.34,86.921 790.425,211.296 791.498,372.522C799.444,379.309 805.672,389.694 805.672,403.808C805.672,416.185 799.33,427.397 790.496,435.476C782.239,443.027 771.887,447.696 763.207,448.43C754.237,514.186 742.745,598.304 733.386,666.418C754.48,682.51 772.408,712.998 778.752,729.833C785.6,730.955 791.293,733.723 795.868,737.703C804.583,745.287 809.333,757.612 809.333,772.559C809.333,784.917 803.306,797.019 794.122,805.958C784.973,814.862 772.774,820.536 760.839,820.536C738.816,820.536 720.47,803.849 717.334,782.038C717.12,783.511 716.939,784.743 716.792,785.72C714.275,802.464 699.131,818.886 672.705,831.58C660.041,837.663 644.706,843.025 627.111,847.408C628.294,863.003 631.072,900.405 631.408,912.206C631.653,920.799 626.506,927.569 617.951,932.218C608.221,937.504 593.737,940.029 582.581,940.879C571.181,941.748 558.136,939.946 548.671,935.724C540.886,932.252 535.442,927.023 533.515,920.845C531.841,915.479 533.815,909.224 538.654,903.505C543.743,897.49 551.96,891.837 557.059,888.634L550.595,858.798C538.228,859.619 525.34,860.05 512,860.05C494.091,860.05 476.854,859.27 460.495,857.813C460.6,872.097 460.769,898.81 460.685,911.799C460.617,922.15 454.59,928.743 445.341,932.659C434.914,937.073 419.744,937.659 408.748,938.295C397.343,938.955 383.33,937.852 373.631,933.241C365.382,929.319 359.931,923.04 359.241,914.118C358.59,905.717 363.761,897.732 370.97,891.589C376.318,887.032 382.596,883.469 386.768,881.346L383.975,844.532ZM613.31,850.546C598.399,853.63 582.119,856.05 564.677,857.676L571.805,890.576C572.462,893.61 571.042,896.715 568.318,898.202C568.318,898.202 558.955,903.297 552.169,909.618C550.599,911.08 549.169,912.6 548.113,914.148C547.667,914.8 547.291,915.444 547.055,916.092C546.979,916.301 546.819,916.482 546.88,916.677C547.766,919.518 550.795,921.342 554.374,922.939C561.944,926.315 572.399,927.615 581.517,926.92C590.88,926.206 603.101,924.353 611.267,919.916C614.656,918.075 617.511,916.009 617.414,912.605C617.095,901.422 614.557,867.027 613.31,850.546ZM533.363,842.667C589.153,840.644 635.203,830.734 665.345,816.256C685.236,806.701 698.086,795.797 699.981,783.193C703.77,757.986 730.459,562.732 747.297,439.288C739.985,445.237 730.926,450.827 720.183,455.903C676.547,476.519 604.4,490.115 516.222,490.115C413.251,490.115 324.284,471.553 280.129,444.901C276.048,442.437 272.333,439.886 268.99,437.261C286.507,561.273 314.298,757.71 318.15,783.072C319.012,788.748 322.578,794.089 328.035,799.234C334.519,805.349 343.578,810.995 354.743,816.119C382.795,828.994 423.605,838.298 471.683,841.666L533.363,842.667ZM446.484,856.376C429.211,854.367 413.057,851.586 398.291,848.166L401.092,885.077C401.32,888.083 399.597,890.898 396.817,892.063C396.817,892.063 387.367,896.01 380.05,902.245C376.422,905.337 372.872,908.809 373.199,913.037C373.588,918.06 378.162,920.405 383.405,922.051C390.876,924.396 400.16,924.769 407.939,924.319C416.09,923.847 426.844,923.593 435.568,921.227C441.41,919.642 446.647,917.501 446.685,911.708C446.772,898.284 446.587,870.153 446.484,856.376ZM394.3,533.301C414.045,533.301 430.075,555.669 430.075,583.22C430.075,610.77 414.045,633.138 394.3,633.138C374.555,633.138 358.525,610.77 358.525,583.22C358.525,555.669 374.555,533.301 394.3,533.301ZM588.56,535.39C608.304,535.39 624.335,557.758 624.335,585.309C624.335,612.86 608.304,635.227 588.56,635.227C568.815,635.227 552.785,612.86 552.785,585.309C552.785,557.758 568.815,535.39 588.56,535.39ZM522.926,627.842C522.926,623.427 526.51,619.842 530.926,619.842C535.341,619.842 538.926,623.427 538.926,627.842C538.926,653.242 517.033,674.163 489.722,674.163C462.411,674.163 440.518,653.242 440.518,627.842C440.518,623.427 444.103,619.842 448.518,619.842C452.934,619.842 456.518,623.427 456.518,627.842C456.518,644.743 471.55,658.163 489.722,658.163C507.894,658.163 522.926,644.743 522.926,627.842ZM239.211,355.439C239.543,355.299 239.877,355.164 240.214,355.035L239.528,350.176C239.408,351.924 239.302,353.678 239.211,355.439ZM721.667,751.296L720.361,760.657C721.454,758.375 722.783,756.162 724.315,754.036L721.667,751.296ZM765.466,431.869C770.238,430.607 775.361,427.636 779.698,423.669C785.289,418.556 789.672,411.641 789.672,403.808C789.672,390.385 780.561,382.377 772.573,379.733L769.726,400.626C769.68,403.591 769.276,406.547 768.519,409.48L765.466,431.869ZM737.202,760.24C733.396,764.755 730.86,769.905 730.86,775.395C730.86,792.523 744.233,806.536 760.839,806.536C769.314,806.536 777.861,802.248 784.357,795.925C790.818,789.637 795.333,781.252 795.333,772.559C795.333,762.243 792.693,753.499 786.678,748.265C784.651,746.501 782.248,745.186 779.482,744.349C769.963,744.233 761.942,746.285 757.49,748.57C747.873,753.505 744.247,759.682 737.202,760.24ZM745.081,766.351C751.235,766.351 756.232,771.348 756.232,777.502C756.232,783.657 751.235,788.653 745.081,788.653C738.926,788.653 733.929,783.657 733.929,777.502C733.929,771.348 738.926,766.351 745.081,766.351ZM731.141,682.749C728.552,701.563 726.173,718.815 724.113,733.681L733.969,743.879C742.601,736.801 753.5,731.779 763.747,729.992C757.803,716.336 745.665,696.208 731.141,682.749ZM260.142,374.59L263.276,396.796C263.727,397.833 263.977,398.978 263.977,400.18C263.977,407.094 267.955,413.531 274.563,419.745C282.577,427.281 294.321,434.201 309.03,440.475C355.659,460.365 431.011,473.115 516.222,473.115C601.231,473.115 670.853,460.407 712.921,440.532C726.069,434.32 736.411,427.473 743.405,420.016C747.483,415.669 750.368,411.171 751.768,406.499L756.143,374.4C752.716,377.1 748.897,379.724 744.69,382.254C700.315,408.944 610.983,427.568 508.021,427.568C405.06,427.568 315.728,408.944 271.353,382.254C267.245,379.783 263.506,377.223 260.142,374.59ZM242.576,371.776C241.613,372.462 240.719,373.281 239.917,374.253C236.908,377.902 235.279,383.399 235.279,391.121C235.279,402.452 241.216,411.86 248.843,416.171L242.576,371.776ZM775.305,363.879C775.265,362.813 775.219,361.75 775.167,360.688L774.752,363.735C774.936,363.781 775.12,363.829 775.305,363.879ZM285.586,675.761C267.076,689.618 246.638,709.946 236.85,737.297C226.13,767.252 232.062,779.196 238.262,787.905C239.948,790.273 243.032,791.313 246.278,791.618C252.032,792.159 258.675,790.237 262.184,785.498C269.098,776.161 270.834,761.196 269.471,755.163L269.217,752.734L269.633,749.656C270.293,747.053 271.996,743.758 274.421,740.332C280.011,732.433 289.542,723.203 292.005,720.863C290.058,707.215 287.895,692.015 285.586,675.761ZM768.625,312.871C740.792,190.726 631.976,102.921 506.005,102.921C376.242,102.921 266.765,188.561 243.403,318.761C248.785,309.517 258.167,300.67 271.353,292.739C315.728,266.049 405.06,247.425 508.021,247.425C610.983,247.425 700.315,266.049 744.69,292.739C755.047,298.968 763.057,305.763 768.625,312.871ZM760.924,339.291C760.984,338.697 761.014,338.098 761.014,337.496C761.014,330.584 757.007,324.15 750.365,317.93C742.302,310.381 730.49,303.446 715.706,297.156C668.862,277.227 593.239,264.425 508.021,264.425C422.803,264.425 347.181,277.227 300.337,297.156C285.553,303.446 273.741,310.381 265.678,317.93C259.035,324.15 255.029,330.584 255.029,337.496C255.029,337.862 255.04,338.226 255.062,338.588L255.463,341.431C256.666,346.874 260.312,352.039 265.678,357.063C273.741,364.612 285.553,371.547 300.337,377.837C347.181,397.766 422.803,410.568 508.021,410.568C593.239,410.568 668.862,397.766 715.706,377.837C730.49,371.547 742.302,364.612 750.365,357.063C756.018,351.77 759.762,346.32 760.752,340.554L760.924,339.291Z" style="fill:rgb(56,56,56);"/>
        <g transform="matrix(1.44742,0,0,1.38348,-183.62,-213.348)">
            <path d="M405.944,551.777C410.31,551.777 413.854,555.661 413.854,560.445C413.854,565.229 410.31,569.113 405.944,569.113C401.579,569.113 398.035,565.229 398.035,560.445C398.035,555.661 401.579,551.777 405.944,551.777ZM540.155,553.288C544.52,553.288 548.064,557.172 548.064,561.955C548.064,566.739 544.52,570.623 540.155,570.623C535.79,570.623 532.246,566.739 532.246,561.955C532.246,557.172 535.79,553.288 540.155,553.288Z" style="fill:white;"/>
        </g>
        <g transform="matrix(1,0,0,1,-990.057,0)">
            <path d="M1724.05,441.081L1735.39,362.77C1736.02,358.4 1740.08,355.366 1744.45,355.999C1748.82,356.631 1751.85,360.693 1751.22,365.062L1699.36,723.308L1699.35,723.376C1698.72,727.735 1694.68,730.765 1690.32,730.152C1685.95,729.54 1682.91,725.517 1683.5,721.152L1683.51,721.084L1718.5,463.805C1692.03,478.491 1628.95,503.847 1507.62,505.049C1327.46,506.834 1248.09,449.553 1248.09,449.553C1244.5,446.985 1243.67,441.985 1246.24,438.393C1248.8,434.801 1253.8,433.969 1257.39,436.537C1257.39,436.537 1334.01,490.769 1507.46,489.05C1670.57,487.434 1723.48,441.542 1723.48,441.542C1723.66,441.378 1723.85,441.225 1724.05,441.081Z" style="fill:rgb(0,41,114);fill-opacity:0.24;"/>
        </g>
        <g transform="matrix(0.87445,0,0,2.17364,91.9078,-793.503)">
            <path d="M735.751,704.059C735.751,704.059 735.939,723.041 735.939,733.53C735.939,744.02 706.922,752.536 671.182,752.536C635.442,752.536 606.426,744.02 606.426,733.53C606.426,723.041 605.668,704.204 605.668,704.204" style="fill:rgb(248,199,151);"/>
        </g>
        <g transform="matrix(0.725051,0,0,1.69632,182.393,-446.508)">
            <path d="M735.751,704.059C735.751,704.059 735.939,723.041 735.939,733.53C735.939,744.02 706.922,752.536 671.182,752.536C635.442,752.536 606.426,744.02 606.426,733.53C606.426,723.041 605.668,704.204 605.668,704.204" style="fill:rgb(255,223,184);"/>
        </g>
        <g transform="matrix(0.87445,0,0,0.848388,91.4169,114.544)">
            <ellipse cx="671.182" cy="733.53" rx="64.757" ry="19.006" style="fill:rgb(237,172,116);"/>
        </g>
        <g transform="matrix(0.87445,0,0,0.848388,92.482,129.988)">
            <path d="M671.182,714.524C706.922,714.524 721.309,720.398 721.66,729.198C722.079,739.678 705.039,737.572 669.298,737.572C633.558,737.572 616.736,740.797 616.736,730.307C616.736,719.818 635.442,714.524 671.182,714.524Z" style="fill:rgb(132,66,52);"/>
        </g>
        <g transform="matrix(0.87445,0,0,0.848388,91.4169,114.544)">
            <path d="M743.361,729.622C743.966,730.777 744.312,732.098 744.317,733.501C744.317,733.501 744.505,782.156 744.505,809.043C744.505,839.674 712.478,865.988 671.743,865.988C631.009,865.988 598.982,839.674 598.982,809.043C598.982,782.215 598.225,734.039 598.225,734.039C598.211,733.135 598.338,732.263 598.587,731.445C599.357,726.6 602.84,721.508 609.806,717.566C621.32,711.05 644.465,706.273 671.182,706.273C697.899,706.273 721.044,711.05 732.559,717.566C738.655,721.016 742.084,725.347 743.361,729.622ZM614.49,751.781C614.711,768.31 614.992,792.648 614.992,809.043C614.992,817.632 618.855,825.504 625.134,831.944C635.631,842.709 652.648,849.486 671.743,849.486C690.839,849.486 707.856,842.709 718.353,831.944C724.632,825.504 728.495,817.632 728.495,809.043C728.495,792.653 728.425,768.169 728.371,751.567C715.935,756.999 694.975,760.787 671.182,760.787C647.703,760.787 626.983,757.098 614.49,751.781ZM615.275,733.53C615.431,733.666 615.589,733.795 615.736,733.902C617.312,735.044 619.377,736.081 621.825,737.061C632.955,741.516 650.934,744.285 671.182,744.285C691.43,744.285 709.409,741.516 720.54,737.061C722.988,736.081 725.052,735.044 726.628,733.902C726.775,733.795 726.933,733.666 727.089,733.53C726.933,733.394 726.775,733.265 726.628,733.158C725.052,732.016 722.988,730.98 720.54,730C709.409,725.545 691.43,722.775 671.182,722.775C650.934,722.775 632.955,725.545 621.825,730C619.377,730.98 617.312,732.016 615.736,733.158C615.589,733.265 615.431,733.394 615.275,733.53Z" style="fill:rgb(56,56,56);"/>
        </g>
    </g>
</svg>
